# xmcd CD database file
#
# Track frame offsets:
#	150
#	6198
#	22364
#	38738
#	61677
#	76111
#	95836
#	110132
#	119131
#	126851
#	140329
#	171577
#
# Disc length: 3065 seconds
#
# Revision: 1
# Processed by: cddbd v1.4PL0 Copyright (c) Steve Scherf et al.
# Submitted via: CDex 1.51
#
DISCID=ac0bf70c
DTITLE=Shanti Shanti - Walkin' with the Devas
DYEAR=1999
DGENRE=New Age
TTITLE0=Ganesh Prayer
TTITLE1=Walkin' with the Devas
TTITLE2=Saraswati
TTITLE3=Sri Rudra Prashna
TTITLE4=Ananda Kumar Ashtakam
TTITLE5=Sama Veda
TTITLE6=Angel
TTITLE7=Morning in Bristol
TTITLE8=Shanti Mantra
TTITLE9=Shiva Panchakshara
TTITLE10=River of Grace
TTITLE11=Data
EXTD=YEAR: 1999
EXTT0=
EXTT1=
EXTT2=
EXTT3=
EXTT4=
EXTT5=
EXTT6=
EXTT7=
EXTT8=
EXTT9=
EXTT10=
EXTT11=
PLAYORDER=
